<mxfile host="app.diagrams.net" agent="Mozilla/5.0 (Windows NT 10.0; Win64; x64) AppleWebKit/537.36 (KHTML, like Gecko) Chrome/138.0.0.0 Safari/537.36" version="28.1.0">
  <diagram name="Page-1" id="_ylW888VlAwEUjB5M9pR">
    <mxGraphModel dx="1213" dy="730" grid="1" gridSize="10" guides="1" tooltips="1" connect="1" arrows="1" fold="1" page="1" pageScale="1" pageWidth="850" pageHeight="1100" math="0" shadow="0">
      <root>
        <mxCell id="0" />
        <mxCell id="1" parent="0" />
        <mxCell id="mHXzdk6PsBRwr-myhz5B-9" style="edgeStyle=orthogonalEdgeStyle;rounded=0;orthogonalLoop=1;jettySize=auto;html=1;entryX=0;entryY=0.5;entryDx=0;entryDy=0;" edge="1" parent="1" source="mHXzdk6PsBRwr-myhz5B-3" target="mHXzdk6PsBRwr-myhz5B-7">
          <mxGeometry relative="1" as="geometry" />
        </mxCell>
        <mxCell id="mHXzdk6PsBRwr-myhz5B-3" value="&lt;font style=&quot;font-size: 7px;&quot;&gt;User&lt;/font&gt;" style="shape=umlActor;verticalLabelPosition=bottom;verticalAlign=top;html=1;outlineConnect=0;" vertex="1" parent="1">
          <mxGeometry x="80" y="60" width="10" height="20" as="geometry" />
        </mxCell>
        <mxCell id="mHXzdk6PsBRwr-myhz5B-4" value="Login flow" style="text;strokeColor=none;fillColor=none;align=left;verticalAlign=middle;spacingLeft=4;spacingRight=4;overflow=hidden;points=[[0,0.5],[1,0.5]];portConstraint=eastwest;rotatable=0;whiteSpace=wrap;html=1;" vertex="1" parent="1">
          <mxGeometry x="110" y="10" width="80" height="30" as="geometry" />
        </mxCell>
        <mxCell id="mHXzdk6PsBRwr-myhz5B-11" value="" style="edgeStyle=orthogonalEdgeStyle;rounded=0;orthogonalLoop=1;jettySize=auto;html=1;" edge="1" parent="1" source="mHXzdk6PsBRwr-myhz5B-7" target="mHXzdk6PsBRwr-myhz5B-10">
          <mxGeometry relative="1" as="geometry" />
        </mxCell>
        <mxCell id="mHXzdk6PsBRwr-myhz5B-7" value="&lt;h6&gt;Login Page&lt;/h6&gt;" style="rounded=0;whiteSpace=wrap;html=1;" vertex="1" parent="1">
          <mxGeometry x="125" y="55" width="50" height="30" as="geometry" />
        </mxCell>
        <mxCell id="mHXzdk6PsBRwr-myhz5B-13" value="" style="edgeStyle=orthogonalEdgeStyle;rounded=0;orthogonalLoop=1;jettySize=auto;html=1;" edge="1" parent="1" source="mHXzdk6PsBRwr-myhz5B-10" target="mHXzdk6PsBRwr-myhz5B-12">
          <mxGeometry relative="1" as="geometry" />
        </mxCell>
        <mxCell id="mHXzdk6PsBRwr-myhz5B-14" value="Yes" style="edgeLabel;html=1;align=center;verticalAlign=middle;resizable=0;points=[];" vertex="1" connectable="0" parent="mHXzdk6PsBRwr-myhz5B-13">
          <mxGeometry x="-0.1911" y="1" relative="1" as="geometry">
            <mxPoint as="offset" />
          </mxGeometry>
        </mxCell>
        <mxCell id="mHXzdk6PsBRwr-myhz5B-16" value="" style="edgeStyle=orthogonalEdgeStyle;rounded=0;orthogonalLoop=1;jettySize=auto;html=1;" edge="1" parent="1" source="mHXzdk6PsBRwr-myhz5B-10" target="mHXzdk6PsBRwr-myhz5B-15">
          <mxGeometry relative="1" as="geometry" />
        </mxCell>
        <mxCell id="mHXzdk6PsBRwr-myhz5B-17" value="No" style="edgeLabel;html=1;align=center;verticalAlign=middle;resizable=0;points=[];" vertex="1" connectable="0" parent="mHXzdk6PsBRwr-myhz5B-16">
          <mxGeometry x="-0.2667" y="-2" relative="1" as="geometry">
            <mxPoint as="offset" />
          </mxGeometry>
        </mxCell>
        <mxCell id="mHXzdk6PsBRwr-myhz5B-10" value="&lt;h6&gt;Have a user&lt;/h6&gt;" style="rhombus;whiteSpace=wrap;html=1;rounded=0;" vertex="1" parent="1">
          <mxGeometry x="210" y="45" width="60" height="50" as="geometry" />
        </mxCell>
        <mxCell id="mHXzdk6PsBRwr-myhz5B-12" value="Home Page" style="whiteSpace=wrap;html=1;rounded=0;" vertex="1" parent="1">
          <mxGeometry x="180" y="170" width="120" height="60" as="geometry" />
        </mxCell>
        <mxCell id="mHXzdk6PsBRwr-myhz5B-15" value="Register" style="whiteSpace=wrap;html=1;rounded=0;" vertex="1" parent="1">
          <mxGeometry x="320" y="40" width="120" height="60" as="geometry" />
        </mxCell>
      </root>
    </mxGraphModel>
  </diagram>
</mxfile>
